#!OML:ASF H:\Pregnant\Project 1\Capture day 1\Session 1\femalepreg.ASF
:FULLY-SPECIFIED
:DEGREES
596
root 5.77996 15.7677 26.7229 402.109 -88.8036 -382.347
lowerback -20.6812 2.92832 2.42442
upperback -2.5145 3.28894 -1.53257
thorax 9.05755 1.61352 -2.14261
lowerneck -11.4198 14.4393 14.3366
upperneck 19.6078 21.8897 -20.1555
head 12.4159 9.09007 -6.1706
rclavicle 1.45237e-014 -1.80894e-014
rhumerus -97.6081 45.8909 -125.249
rradius 124.753
rwrist -100.015
rhand -37.2465 -86.0565
rfingers 7.12502
rthumb -10.3125 -244.216
lclavicle 1.45237e-014 -1.80894e-014
lhumerus -101.789 -47.8897 123.617
lradius 126.743
lwrist 119.689
lhand -59.9928 78.2578
lfingers 7.12502
lthumb -32.145 -105.435
rfemur -25.1105 24.755 10.015
rtibia 25.4163
rfoot -15.7331 -33.5069
rtoes -8.31371
lfemur -18.9599 -18.6743 -9.63014
ltibia 6.48038e-014
lfoot 1.89153 16.0174
ltoes -19.5263
597
root 5.77715 15.7654 26.6923 401.356 -88.7469 -381.776
lowerback -20.6577 2.87325 2.66979
upperback -2.45552 3.16045 -1.48671
thorax 9.11287 1.56267 -2.26865
lowerneck -11.2941 14.4571 14.4424
upperneck 19.6533 21.9132 -20.1495
head 12.4259 9.11513 -6.18836
rclavicle 2.56308e-014 2.10712e-014
rhumerus -97.4488 46.0089 -125.174
rradius 124.768
rwrist -99.9797
rhand -37.2279 -86.0203
rfingers 7.12502
rthumb -10.2945 -244.252
lclavicle 2.56308e-014 2.10712e-014
lhumerus -101.313 -47.5998 122.996
lradius 126.716
lwrist 119.66
lhand -60.005 78.4787
lfingers 7.12502
lthumb -32.1566 -105.653
rfemur -24.9109 24.6977 10.2782
rtibia 25.4931
rfoot -15.7221 -33.4257
rtoes -8.38783
lfemur -18.751 -18.7156 -9.55523
ltibia 1.35174e-014
lfoot 1.90453 16.0286
ltoes -19.7969
598
root 5.77469 15.7631 26.6619 401.05 -88.6724 -381.644
lowerback -20.6323 2.79642 2.91997
upperback -2.39906 3.00146 -1.43585
thorax 9.16128 1.49744 -2.40095
lowerneck -11.17 14.495 14.5924
upperneck 19.6844 21.9612 -20.1638
head 12.4451 9.15301 -6.21415
rclavicle -3.92475e-014 -3.27995e-015
rhumerus -97.3129 46.1634 -125.149
rradius 124.773
rwrist -99.9208
rhand -37.2133 -85.9837
rfingers 7.12502
rthumb -10.2804 -244.288
lclavicle -3.92475e-014 -3.27995e-015
lhumerus -100.817 -47.2641 122.305
lradius 126.686
lwrist 119.646
lhand -60.0126 78.6007
lfingers 7.12502
lthumb -32.1638 -105.774
rfemur -24.7085 24.6679 10.5509
rtibia 25.5533
rfoot -15.7221 -33.379
rtoes -8.37385
lfemur -18.5551 -18.7627 -9.45718
ltibia -5.725e-014
lfoot 1.92055 16.0388
ltoes -20.0597
599
root 5.77259 15.761 26.6318 400.991 -88.5835 -381.754
lowerback -20.5984 2.72659 3.18458
upperback -2.35352 2.84866 -1.38987
thorax 9.19332 1.43553 -2.54559
lowerneck -11.0441 14.5234 14.7371
upperneck 19.7168 21.9933 -20.1641
head 12.4581 9.1851 -6.23758
rclavicle -2.42766e-014 -2.5842e-015
rhumerus -97.176 46.2868 -125.114
rradius 124.777
rwrist -99.8519
rhand -37.2012 -85.9539
rfingers 7.12502
rthumb -10.2687 -244.317
lclavicle -2.42766e-014 -2.5842e-015
lhumerus -100.371 -46.9353 121.635
lradius 126.65
lwrist 119.65
lhand -60.0069 78.6203
lfingers 7.12502
lthumb -32.1584 -105.794
rfemur -24.5037 24.6441 10.8327
rtibia 25.5985
rfoot -15.7271 -33.3514
rtoes -8.31712
lfemur -18.3723 -18.8156 -9.34144
ltibia -5.96354e-015
lfoot 1.93689 16.0509
ltoes -20.2992
600
root 5.7709 15.759 26.6016 401.021 -88.481 -381.947
lowerback -20.5538 2.66374 3.45659
upperback -2.31828 2.70382 -1.34792
thorax 9.20818 1.37742 -2.69709
lowerneck -10.9279 14.5421 14.8614
upperneck 19.7575 22.0091 -20.139
head 12.4659 9.20988 -6.25159
rclavicle 1.14674e-014 -8.94531e-015
rhumerus -97.0205 46.3745 -125.049
rradius 124.778
rwrist -99.7976
rhand -37.1879 -85.9149
rfingers 7.12502
rthumb -10.2559 -244.355
lclavicle 1.14674e-014 -8.94531e-015
lhumerus -99.9813 -46.6203 120.994
lradius 126.605
lwrist 119.67
lhand -59.9887 78.5367
lfingers 7.12502
lthumb -32.1411 -105.714
rfemur -24.2978 24.6034 11.1254
rtibia 25.6319
rfoot -15.7278 -33.3221
rtoes -8.24559
lfemur -18.203 -18.8753 -9.20974
ltibia 5.40694e-014
lfoot 1.95195 16.064
ltoes -20.5014
601
root 5.76962 15.7571 26.5713 401.165 -88.3677 -382.246
lowerback -20.5056 2.59981 3.7232
upperback -2.29557 2.55805 -1.30153
thorax 9.20539 1.31796 -2.84115
lowerneck -10.7944 14.5524 14.9833
upperneck 19.7957 22.0129 -20.1095
head 12.4657 9.23102 -6.26734
rclavicle 1.99903e-014 -7.7526e-015
rhumerus -96.8786 46.4417 -124.975
rradius 124.786
rwrist -99.7743
rhand -37.1751 -85.8535
rfingers 7.12502
rthumb -10.2435 -244.416
lclavicle 1.99903e-014 -7.7526e-015
lhumerus -99.6447 -46.2942 120.385
lradius 126.549
lwrist 119.697
lhand -59.9406 78.2299
lfingers 7.12502
lthumb -32.0953 -105.417
rfemur -24.0942 24.5364 11.4294
rtibia 25.6548
rfoot -15.718 -33.2803
rtoes -8.18041
lfemur -18.0474 -18.9387 -9.06272
ltibia 2.42517e-014
lfoot 1.96678 16.0788
ltoes -20.68
602
root 5.76874 15.7552 26.5408 401.389 -88.246 -382.621
lowerback -20.4469 2.53047 3.98208
upperback -2.28707 2.40647 -1.24965
thorax 9.17897 1.25445 -2.97678
lowerneck -10.6465 14.5607 15.0992
upperneck 19.8345 22.0138 -20.069
head 12.4595 9.25233 -6.27952
rclavicle -1.2803e-014 -2.27608e-014
rhumerus -96.7528 46.4927 -124.897
rradius 124.799
rwrist -99.7872
rhand -37.1543 -85.7919
rfingers 7.12502
rthumb -10.2235 -244.477
lclavicle -1.2803e-014 -2.27608e-014
lhumerus -99.36 -45.9443 119.803
lradius 126.479
lwrist 119.722
lhand -59.8654 77.6832
lfingers 7.12502
lthumb -32.0237 -104.884
rfemur -23.8916 24.4108 11.749
rtibia 25.6679
rfoot -15.6856 -33.1952
rtoes -8.17421
lfemur -17.9019 -19.0048 -8.90356
ltibia -1.23246e-014
lfoot 1.98441 16.0938
ltoes -20.8551
603
root 5.76805 15.7533 26.5101 401.844 -88.1176 -383.222
lowerback -20.3844 2.49119 4.25455
upperback -2.28194 2.29235 -1.20219
thorax 9.14968 1.20917 -3.11427
lowerneck -10.5378 14.543 15.1542
upperneck 19.8973 21.9764 -19.9846
head 12.4472 9.25267 -6.27292
rclavicle -2.50904e-014 -4.67144e-015
rhumerus -96.5656 46.4635 -124.721
rradius 124.82
rwrist -99.8188
rhand -37.1314 -85.7377
rfingers 7.12502
rthumb -10.2014 -244.53
lclavicle -2.50904e-014 -4.67144e-015
lhumerus -99.151 -45.6576 119.308
lradius 126.393
lwrist 119.746
lhand -59.7455 76.8334
lfingers 7.12502
lthumb -31.9095 -104.057
rfemur -23.6891 24.234 12.0875
rtibia 25.6694
rfoot -15.6223 -33.0721
rtoes -8.23792
lfemur -17.7625 -19.0693 -8.73042
ltibia -5.52621e-014
lfoot 2.00531 16.1096
ltoes -21.0464
604
root 5.76746 15.7513 26.4793 402.532 -87.9839 -384.053
lowerback -20.3252 2.43042 4.50956
upperback -2.27677 2.15214 -1.13721
thorax 9.11745 1.1502 -3.22974
lowerneck -10.4322 14.5436 15.2231
upperneck 19.9514 21.9652 -19.9124
head 12.4416 9.26457 -6.2664
rclavicle 9.11614e-015 -1.19768e-014
rhumerus -96.4021 46.4684 -124.56
rradius 124.852
rwrist -99.8708
rhand -37.1026 -85.6669
rfingers 7.12502
rthumb -10.1736 -244.599
lclavicle 9.11614e-015 -1.19768e-014
lhumerus -98.9357 -45.3193 118.793
lradius 126.291
lwrist 119.751
lhand -59.5967 75.8253
lfingers 7.12502
lthumb -31.7678 -103.078
rfemur -23.485 24.0057 12.444
rtibia 25.6563
rfoot -15.5411 -32.9009
rtoes -8.30336
lfemur -17.627 -19.1298 -8.54324
ltibia 1.63003e-014
lfoot 2.02761 16.1266
ltoes -21.2539
605
root 5.76692 15.7494 26.4483 403.5 -87.8454 -385.159
lowerback -20.2633 2.43111 4.80026
upperback -2.27693 2.08697 -1.08808
thorax 9.08614 1.12842 -3.36164
lowerneck -10.3726 14.4935 15.1929
upperneck 20.041 21.8802 -19.7702
head 12.4189 9.23842 -6.23354
rclavicle -1.27781e-014 -3.77691e-015
rhumerus -96.1453 46.3213 -124.248
rradius 124.897
rwrist -99.9057
rhand -37.067 -85.6075
rfingers 7.12502
rthumb -10.1392 -244.657
lclavicle -1.27781e-014 -3.77691e-015
lhumerus -98.8354 -45.1084 118.429
lradius 126.166
lwrist 119.757
lhand -59.4151 74.7406
lfingers 7.12502
lthumb -31.5948 -102.027
rfemur -23.2779 23.7431 12.8183
rtibia 25.6248
rfoot -15.4341 -32.6971
rtoes -8.36634
lfemur -17.4941 -19.1837 -8.34082
ltibia -6.63941e-014
lfoot 2.0525 16.1431
ltoes -21.4936
606
root 5.76643 15.7475 26.4171 404.739 -87.7005 -386.534
lowerback -20.2042 2.43403 5.09096
upperback -2.2746 2.02396 -1.02876
thorax 9.05839 1.10747 -3.48156
lowerneck -10.3352 14.445 15.1507
upperneck 20.1343 21.7971 -19.624
head 12.4007 9.21096 -6.19549
rclavicle -7.38765e-015 1.14301e-015
rhumerus -95.8837 46.1621 -123.91
rradius 124.956
rwrist -99.9372
rhand -37.0299 -85.5609
rfingers 7.12502
rthumb -10.1035 -244.702
lclavicle -7.38765e-015 1.14301e-015
lhumerus -98.7426 -44.9027 118.081
lradius 126.019
lwrist 119.758
lhand -59.2085 73.7047
lfingers 7.12502
lthumb -31.398 -101.03
rfemur -23.0651 23.4512 13.2114
rtibia 25.5717
rfoot -15.3131 -32.4567
rtoes -8.42756
lfemur -17.362 -19.2303 -8.12052
ltibia 1.98785e-014
lfoot 2.07423 16.1629
ltoes -21.7146
